<svg version="1.1" viewBox="0.0 0.0 16.0 16.0" fill="none" stroke="none" stroke-linecap="square" stroke-miterlimit="10" xmlns:xlink="http://www.w3.org/1999/xlink" xmlns="http://www.w3.org/2000/svg"><clipPath id="p.0"><path d="m0 0l16.0 0l0 16.0l-16.0 0l0 -16.0z" clip-rule="nonzero"/></clipPath><g clip-path="url(#p.0)"><path fill="#000000" fill-opacity="0.0" d="m0 0l16.0 0l0 16.0l-16.0 0z" fill-rule="evenodd"/><path fill="#000000" fill-opacity="0.0" d="m-1.8897638 -1.4435695l12.0 0l0 14.267716l-12.0 0z" fill-rule="evenodd"/><path fill="#000000" d="m8.064208 0.28341258l0 2.546875l-0.828125 0q-0.125 -0.40625 -0.265625 -0.71875q-0.140625 -0.31249988 -0.28125 -0.5156249q-0.140625 -0.21875 -0.3125 -0.34375q-0.171875 -0.140625 -0.421875 -0.1875q-0.234375 -0.046875 -0.5625 -0.046875l-2.671875 0l0 4.4375l1.8125 0q0.375 0 0.578125 -0.09375q0.21875 -0.109375 0.359375 -0.359375q0.140625 -0.265625 0.265625 -0.796875l0.796875 0l0 3.25l-0.796875 0q-0.125 -0.515625 -0.265625 -0.765625q-0.140625 -0.265625 -0.34375 -0.375q-0.203125 -0.109375 -0.59375 -0.109375l-1.8125 0l0 4.8750005l2.640625 0q0.40625 0 0.65625 -0.0625q0.265625 -0.078125 0.453125 -0.25q0.1875 -0.171875 0.328125 -0.453125q0.140625 -0.28125 0.234375 -0.578125q0.109375 -0.296875 0.28125 -0.875l0.828125 0l-0.15625 2.96875l-7.828125 0l0 -0.421875q0.515625 -0.125 0.6875 -0.28125q0.18749994 -0.171875 0.23437494 -0.46875q0.0625 -0.3125 0.0625 -0.9375l0 -7.3281255q0 -0.5781249 -0.046875 -0.8437499q-0.046875 -0.265625 -0.14062494 -0.40625q-0.09375 -0.15625 -0.265625 -0.25q-0.15625 -0.09375 -0.53125 -0.203125l0 -0.40625l7.90625 0z" fill-rule="nonzero"/><path fill="#000000" fill-opacity="0.0" d="m2.6929133 2.929134l10.614174 0l0 13.070866l-10.614174 0z" fill-rule="evenodd"/><path fill="#ff0000" d="m5.4986877 12.979566q0.171875 0.734375 0.453125 1.171875q0.28125 0.421875 0.734375 0.640625q0.46875 0.203125 1.1875 0.203125q0.984375 0 1.515625 -0.515625q0.53125 -0.515625 0.53125 -1.5q0 -0.640625 -0.21875 -1.0625q-0.21875 -0.4375 -0.71875 -0.8125q-0.5 -0.390625 -1.53125 -0.890625q-0.984375 -0.5 -1.5625 -0.96875q-0.578125 -0.46875 -0.859375 -1.015625q-0.28125 -0.5468745 -0.28125 -1.2031245q0 -0.953125 0.4375 -1.640625q0.453125 -0.703125 1.3125 -1.078125q0.859375 -0.390625 1.96875 -0.390625q0.640625 0 1.25 0.078125q0.625 0.0625 1.546875 0.296875l0 2.28125l-0.84375 0q-0.203125 -0.734375 -0.5 -1.15625q-0.28125 -0.421875 -0.6875 -0.578125q-0.390625 -0.171875 -1.03125 -0.171875q-0.546875 0 -0.984375 0.203125q-0.4375 0.203125 -0.6875 0.625q-0.25 0.40625 -0.25 0.96875q0 0.609375 0.203125 1.03125q0.21875 0.40625 0.671875 0.7656245q0.46875 0.34375 1.359375 0.78125q1.078125 0.546875 1.671875 1.015625q0.609375 0.46875 0.9375 1.0625q0.34375 0.59375 0.34375 1.390625q0 0.890625 -0.28125 1.5q-0.28125 0.609375 -0.78125 1.0q-0.5 0.375 -1.1875 0.5625q-0.6875 0.171875 -1.5 0.171875q-1.328125 0 -3.0625 -0.453125l0 -2.3125l0.84375 0z" fill-rule="nonzero"/><path fill="#000000" fill-opacity="0.0" d="m6.312336 -0.3753281l9.6692915 0l0 12.125984l-9.6692915 0z" fill-rule="evenodd"/><path fill="#0000ff" d="m10.091409 11.046413l2.21875 0q0.359375 0 0.609375 -0.03125q0.25 -0.046875 0.421875 -0.140625q0.171875 -0.09375 0.3125 -0.25q0.140625 -0.15625 0.265625 -0.40625q0.125 -0.25 0.234375 -0.625q0.125 -0.390625 0.28125095 -1.171875l0.859375 0l-0.171875 3.40625l-7.5937505 0l0 -0.421875q0.5156245 -0.125 0.6874995 -0.28125q0.1875 -0.171875 0.234375 -0.46875q0.0625 -0.3125 0.0625 -0.9375l0 -7.328125q0 -0.578125 -0.046875 -0.84375q-0.046875 -0.265625 -0.140625 -0.40625q-0.09375 -0.15625 -0.265625 -0.25q-0.15624952 -0.09375 -0.5312495 -0.203125l0 -0.40625003l3.5468745 0l0 0.40625003q-0.359375 0.109375 -0.515625 0.1875q-0.15625 0.078125 -0.265625 0.21875q-0.09375 0.125 -0.15625 0.40625q-0.046875 0.28125 -0.046875 0.890625l0 8.65625z" fill-rule="nonzero"/></g></svg>