<svg width="1282" height="722" xmlns="http://www.w3.org/2000/svg" xmlns:xlink="http://www.w3.org/1999/xlink" overflow="hidden"><defs><clipPath id="clip0"><rect x="-1" y="-1" width="1282" height="722"/></clipPath></defs><g clip-path="url(#clip0)" transform="translate(1 1)"><path d="M39.5001 87.0001C39.5001 61.8711 59.8711 41.5001 85.0001 41.5001 110.129 41.5001 130.5 61.8711 130.5 87.0001 130.5 112.129 110.129 132.5 85.0001 132.5 59.8711 132.5 39.5001 112.129 39.5001 87.0001Z" fill="#FFFFFF" fill-rule="evenodd"/><path d="M65.6837 73.3922C65.6837 70.7746 67.8056 68.6526 70.4232 68.6526 73.0408 68.6526 75.1628 70.7746 75.1628 73.3922 75.1628 76.0098 73.0408 78.1317 70.4232 78.1317 67.8056 78.1317 65.6837 76.0098 65.6837 73.3922M94.8373 73.3922C94.8373 70.7746 96.9593 68.6526 99.5769 68.6526 102.194 68.6526 104.316 70.7746 104.316 73.3922 104.316 76.0098 102.194 78.1317 99.5769 78.1317 96.9593 78.1317 94.8373 76.0098 94.8373 73.3922" stroke="#000000" stroke-width="10.6667" stroke-linejoin="round" stroke-miterlimit="10" fill="#CDCDCD" fill-rule="evenodd"/><path d="M60.3388 106.843C76.7796 118.134 93.2013 118.134 109.604 106.843" stroke="#000000" stroke-width="10.6667" stroke-linejoin="round" stroke-miterlimit="10" fill="none" fill-rule="evenodd"/><path d="M39.5001 87.0001C39.5001 61.8711 59.8711 41.5001 85.0001 41.5001 110.129 41.5001 130.5 61.8711 130.5 87.0001 130.5 112.129 110.129 132.5 85.0001 132.5 59.8711 132.5 39.5001 112.129 39.5001 87.0001Z" stroke="#000000" stroke-width="10.6667" stroke-linejoin="round" stroke-miterlimit="10" fill="none" fill-rule="evenodd"/><path d="M86.5001 133.5 86.5002 194.5" stroke="#000000" stroke-width="26.6667" stroke-linejoin="round" stroke-miterlimit="10" fill="none" fill-rule="evenodd"/><path d="M0 0 53 15" stroke="#000000" stroke-width="13.3333" stroke-linejoin="round" stroke-miterlimit="10" fill="none" fill-rule="evenodd" transform="matrix(1 0 0 -1 98.5001 152.5)"/><path d="M0 0 61 0.000104987" stroke="#000000" stroke-width="13.3333" stroke-linejoin="round" stroke-miterlimit="10" fill="none" fill-rule="evenodd" transform="matrix(1 0 0 -1 22.5001 153.5)"/><path d="M0 0 53 22" stroke="#000000" stroke-width="13.3333" stroke-linejoin="round" stroke-miterlimit="10" fill="none" fill-rule="evenodd" transform="matrix(1 0 0 -1 34.5001 215.5)"/><path d="M112.5 229.5 90.5001 191.5" stroke="#000000" stroke-width="13.3333" stroke-linejoin="round" stroke-miterlimit="10" fill="none" fill-rule="evenodd"/><path d="M183.5 26.667C183.5 18.2905 190.291 11.5001 198.667 11.5001L237.333 11.5001 237.333 11.5001 318.083 11.5001 491.333 11.5001C499.71 11.5001 506.5 18.2905 506.5 26.667L506.5 64.5835 506.5 64.5835 506.5 87.3334 506.5 87.3331C506.5 95.7096 499.71 102.5 491.333 102.5L318.083 102.5 237.333 102.5 237.333 102.5 198.667 102.5C190.291 102.5 183.5 95.7096 183.5 87.3331L183.5 87.3334 159.647 76.9401 183.5 64.5835Z" stroke="#000000" stroke-width="1.33333" stroke-miterlimit="8" fill="#FFFFFF" fill-rule="evenodd"/><text font-family="Arial,Arial_MSFontService,sans-serif" font-weight="400" font-size="37" transform="translate(209 48)">What a beautiful <tspan font-size="37" x="99.7533" y="45">day!</tspan></text></g></svg>