<svg width="1282" height="722" xmlns="http://www.w3.org/2000/svg" xmlns:xlink="http://www.w3.org/1999/xlink" overflow="hidden"><defs><clipPath id="clip0"><rect x="-1" y="-1" width="1282" height="722"/></clipPath></defs><g clip-path="url(#clip0)" transform="translate(1 1)"><path d="M363.5 95.0001C363.5 69.8711 383.647 49.5001 408.5 49.5001 433.353 49.5001 453.5 69.8711 453.5 95.0001 453.5 120.129 433.353 140.5 408.5 140.5 383.647 140.5 363.5 120.129 363.5 95.0001Z" fill="#FFFFFF" fill-rule="evenodd"/><path d="M389.396 81.3922C389.396 78.7746 391.495 76.6526 394.083 76.6526 396.672 76.6526 398.771 78.7746 398.771 81.3922 398.771 84.0098 396.672 86.1317 394.083 86.1317 391.495 86.1317 389.396 84.0098 389.396 81.3922M418.229 81.3922C418.229 78.7746 420.328 76.6526 422.917 76.6526 425.506 76.6526 427.604 78.7746 427.604 81.3922 427.604 84.0098 425.506 86.1317 422.917 86.1317 420.328 86.1317 418.229 84.0098 418.229 81.3922" stroke="#000000" stroke-width="10.6667" stroke-linejoin="round" stroke-miterlimit="10" fill="#CDCDCD" fill-rule="evenodd"/><path d="M384.11 114.843C400.37 126.134 416.611 126.134 432.833 114.843" stroke="#000000" stroke-width="10.6667" stroke-linejoin="round" stroke-miterlimit="10" fill="none" fill-rule="evenodd"/><path d="M363.5 95.0001C363.5 69.8711 383.647 49.5001 408.5 49.5001 433.353 49.5001 453.5 69.8711 453.5 95.0001 453.5 120.129 433.353 140.5 408.5 140.5 383.647 140.5 363.5 120.129 363.5 95.0001Z" stroke="#000000" stroke-width="10.6667" stroke-linejoin="round" stroke-miterlimit="10" fill="none" fill-rule="evenodd"/><path d="M416.5 140.5 416.5 201.5" stroke="#000000" stroke-width="26.6667" stroke-linejoin="round" stroke-miterlimit="10" fill="none" fill-rule="evenodd"/><path d="M423.5 152.5 484.5 163.5" stroke="#000000" stroke-width="13.3333" stroke-linejoin="round" stroke-miterlimit="10" fill="none" fill-rule="evenodd"/><path d="M0 0 52 16" stroke="#000000" stroke-width="13.3333" stroke-linejoin="round" stroke-miterlimit="10" fill="none" fill-rule="evenodd" transform="matrix(1 0 0 -1 428.5 149.5)"/><path d="M0 0 32 38" stroke="#000000" stroke-width="13.3333" stroke-linejoin="round" stroke-miterlimit="10" fill="none" fill-rule="evenodd" transform="matrix(1 0 0 -1 378.5 231.5)"/><path d="M463.5 225.5 416.5 193.5" stroke="#000000" stroke-width="13.3333" stroke-linejoin="round" stroke-miterlimit="10" fill="none" fill-rule="evenodd"/><path d="M480.5 26.0004C480.5 16.8875 487.887 9.50005 497 9.50005L543.5 9.50005 543.5 9.50005 638 9.50005 842 9.50005C851.113 9.50005 858.5 16.8875 858.5 26.0004L858.5 67.2502 858.5 67.2502 858.5 92.0001 858.5 91.9997C858.5 101.113 851.113 108.5 842 108.5L638 108.5 510.751 124.983 543.5 108.5 497 108.5C487.887 108.5 480.5 101.113 480.5 91.9997L480.5 92.0001 480.5 67.2502 480.5 67.2502Z" stroke="#000000" stroke-width="1.33333" stroke-miterlimit="8" fill="#FFFFFF" fill-rule="evenodd"/><text font-family="Arial,Arial_MSFontService,sans-serif" font-weight="400" font-size="37" transform="translate(516.833 72)">What’s over here?</text></g></svg>