<svg width="1282" height="722" xmlns="http://www.w3.org/2000/svg" xmlns:xlink="http://www.w3.org/1999/xlink" overflow="hidden"><defs><clipPath id="clip0"><rect x="-1" y="-1" width="1282" height="722"/></clipPath></defs><g clip-path="url(#clip0)" transform="translate(1 1)"><path d="M528.5 75.0001C528.5 49.8711 548.871 29.5001 574 29.5001 599.129 29.5001 619.5 49.8711 619.5 75.0001 619.5 100.129 599.129 120.5 574 120.5 548.871 120.5 528.5 100.129 528.5 75.0001Z" fill="#FFFFFF" fill-rule="evenodd"/><path d="M554.684 61.3922C554.684 58.7746 556.806 56.6526 559.423 56.6526 562.041 56.6526 564.163 58.7746 564.163 61.3922 564.163 64.0098 562.041 66.1317 559.423 66.1317 556.806 66.1317 554.684 64.0098 554.684 61.3922M583.837 61.3922C583.837 58.7746 585.959 56.6526 588.577 56.6526 591.194 56.6526 593.316 58.7746 593.316 61.3922 593.316 64.0098 591.194 66.1317 588.577 66.1317 585.959 66.1317 583.837 64.0098 583.837 61.3922" stroke="#000000" stroke-width="10.6667" stroke-linejoin="round" stroke-miterlimit="10" fill="#CDCDCD" fill-rule="evenodd"/><path d="M549.339 94.8429C565.78 106.134 582.201 106.134 598.604 94.8429" stroke="#000000" stroke-width="10.6667" stroke-linejoin="round" stroke-miterlimit="10" fill="none" fill-rule="evenodd"/><path d="M528.5 75.0001C528.5 49.8711 548.871 29.5001 574 29.5001 599.129 29.5001 619.5 49.8711 619.5 75.0001 619.5 100.129 599.129 120.5 574 120.5 548.871 120.5 528.5 100.129 528.5 75.0001Z" stroke="#000000" stroke-width="10.6667" stroke-linejoin="round" stroke-miterlimit="10" fill="none" fill-rule="evenodd"/><path d="M574.5 121.5 574.5 182.5" stroke="#000000" stroke-width="26.6667" stroke-linejoin="round" stroke-miterlimit="10" fill="none" fill-rule="evenodd"/><path d="M574.5 174.5 634.5 227.5" stroke="#000000" stroke-width="13.3333" stroke-linejoin="round" stroke-miterlimit="10" fill="none" fill-rule="evenodd"/><path d="M0 0 68 53" stroke="#000000" stroke-width="13.3333" stroke-linejoin="round" stroke-miterlimit="10" fill="none" fill-rule="evenodd" transform="matrix(1 0 0 -1 581.5 129.5)"/><path d="M0 0 91 7" stroke="#000000" stroke-width="13.3333" stroke-linejoin="round" stroke-miterlimit="10" fill="none" fill-rule="evenodd" transform="matrix(1 0 0 -1 581.5 121.5)"/><path d="M0 0 18 52" stroke="#000000" stroke-width="13.3333" stroke-linejoin="round" stroke-miterlimit="10" fill="none" fill-rule="evenodd" transform="matrix(1 0 0 -1 549.5 230.5)"/><path d="M698.5 26.8336C698.5 17.8129 705.813 10.5001 714.834 10.5001L733.167 10.5001 733.167 10.5001 785.167 10.5001 890.166 10.5001C899.187 10.5001 906.5 17.8129 906.5 26.8336L906.5 67.6666 906.5 67.6666 906.5 92.1667 906.5 92.1665C906.5 101.187 899.187 108.5 890.166 108.5L785.167 108.5 733.167 108.5 733.167 108.5 714.834 108.5C705.813 108.5 698.5 101.187 698.5 92.1665L698.5 92.1667 665.836 87.529 698.5 67.6666Z" stroke="#000000" stroke-width="1.33333" stroke-miterlimit="8" fill="#FFFFFF" fill-rule="evenodd"/><text font-family="Arial,Arial_MSFontService,sans-serif" font-weight="400" font-size="37" transform="translate(754.917 72)">Wow!</text></g></svg>