<svg width="1282" height="722" xmlns="http://www.w3.org/2000/svg" xmlns:xlink="http://www.w3.org/1999/xlink" overflow="hidden"><defs><clipPath id="clip0"><rect x="-1" y="-1" width="1282" height="722"/></clipPath></defs><g clip-path="url(#clip0)" transform="translate(1 1)"><path d="M731.331 245.722C722.74 222.205 734.839 196.177 758.356 187.586 781.873 178.995 807.902 191.094 816.493 214.611 825.084 238.128 812.984 264.157 789.467 272.748 765.95 281.339 739.922 269.239 731.331 245.722Z" fill="#FFFFFF" fill-rule="evenodd"/><path d="M751.182 224.036C750.287 221.586 751.548 218.875 753.997 217.98 756.447 217.085 759.159 218.345 760.053 220.795 760.948 223.245 759.688 225.956 757.238 226.851 754.789 227.746 752.077 226.485 751.182 224.036M778.466 214.069C777.571 211.619 778.831 208.908 781.281 208.013 783.73 207.118 786.442 208.378 787.337 210.828 788.232 213.278 786.971 215.989 784.522 216.884 782.072 217.779 779.361 216.518 778.466 214.069" stroke="#000000" stroke-width="10.6667" stroke-linejoin="round" stroke-miterlimit="10" fill="#CDCDCD" fill-rule="evenodd"/><path d="M760.512 265.093C772.038 248.905 787.406 243.291 806.616 248.25" stroke="#000000" stroke-width="10.6667" stroke-linejoin="round" stroke-miterlimit="10" fill="none" fill-rule="evenodd"/><path d="M731.331 245.722C722.74 222.205 734.839 196.177 758.356 187.586 781.873 178.995 807.902 191.094 816.493 214.611 825.084 238.128 812.984 264.157 789.467 272.748 765.95 281.339 739.922 269.239 731.331 245.722Z" stroke="#000000" stroke-width="10.6667" stroke-linejoin="round" stroke-miterlimit="10" fill="none" fill-rule="evenodd"/><path d="M785.5 274.5 785.5 335.5" stroke="#000000" stroke-width="26.6667" stroke-linejoin="round" stroke-miterlimit="10" fill="none" fill-rule="evenodd"/><path d="M0 0 23 76" stroke="#000000" stroke-width="13.3333" stroke-linejoin="round" stroke-miterlimit="10" fill="none" fill-rule="evenodd" transform="matrix(-1 0 0 1 793.5 333.5)"/><path d="M767.5 282.5 694.5 259.5" stroke="#000000" stroke-width="13.3333" stroke-linejoin="round" stroke-miterlimit="10" fill="none" fill-rule="evenodd"/><path d="M0 0 61 30" stroke="#000000" stroke-width="13.3333" stroke-linejoin="round" stroke-miterlimit="10" fill="none" fill-rule="evenodd" transform="matrix(-1 0 0 1 778.5 281.5)"/><path d="M0 0 45 30" stroke="#000000" stroke-width="13.3333" stroke-linejoin="round" stroke-miterlimit="10" fill="none" fill-rule="evenodd" transform="matrix(1 0 0 -1 740.5 365.5)"/><path d="M830.5 128C830.5 118.888 837.888 111.5 847 111.5L865.167 111.5 865.167 111.5 917.167 111.5 1022 111.5C1031.11 111.5 1038.5 118.888 1038.5 128L1038.5 169.25 1038.5 169.25 1038.5 194 1038.5 194C1038.5 203.113 1031.11 210.5 1022 210.5L917.167 210.5 843.167 222.875 865.167 210.5 847 210.5C837.888 210.5 830.5 203.113 830.5 194L830.5 194 830.5 169.25 830.5 169.25Z" stroke="#000000" stroke-width="1.33333" stroke-miterlimit="8" fill="#FFFFFF" fill-rule="evenodd"/><text font-family="Arial,Arial_MSFontService,sans-serif" font-weight="400" font-size="37" transform="translate(860.828 174)">Oh dear!</text></g></svg>