<svg width="1282" height="722" xmlns="http://www.w3.org/2000/svg" xmlns:xlink="http://www.w3.org/1999/xlink" overflow="hidden"><defs><clipPath id="clip0"><rect x="-1" y="-1" width="1282" height="722"/></clipPath></defs><g clip-path="url(#clip0)" transform="translate(1 1)"><path d="M238.5 87.0001C238.5 61.8711 258.871 41.5001 284 41.5001 309.129 41.5001 329.5 61.8711 329.5 87.0001 329.5 112.129 309.129 132.5 284 132.5 258.871 132.5 238.5 112.129 238.5 87.0001Z" fill="#FFFFFF" fill-rule="evenodd"/><path d="M264.684 73.3922C264.684 70.7746 266.806 68.6526 269.423 68.6526 272.041 68.6526 274.163 70.7746 274.163 73.3922 274.163 76.0098 272.041 78.1317 269.423 78.1317 266.806 78.1317 264.684 76.0098 264.684 73.3922M293.837 73.3922C293.837 70.7746 295.959 68.6526 298.577 68.6526 301.194 68.6526 303.316 70.7746 303.316 73.3922 303.316 76.0098 301.194 78.1317 298.577 78.1317 295.959 78.1317 293.837 76.0098 293.837 73.3922" stroke="#000000" stroke-width="10.6667" stroke-linejoin="round" stroke-miterlimit="10" fill="#CDCDCD" fill-rule="evenodd"/><path d="M259.339 106.843C275.78 118.134 292.201 118.134 308.604 106.843" stroke="#000000" stroke-width="10.6667" stroke-linejoin="round" stroke-miterlimit="10" fill="none" fill-rule="evenodd"/><path d="M238.5 87.0001C238.5 61.8711 258.871 41.5001 284 41.5001 309.129 41.5001 329.5 61.8711 329.5 87.0001 329.5 112.129 309.129 132.5 284 132.5 258.871 132.5 238.5 112.129 238.5 87.0001Z" stroke="#000000" stroke-width="10.6667" stroke-linejoin="round" stroke-miterlimit="10" fill="none" fill-rule="evenodd"/><path d="M285.5 133.5 285.5 194.5" stroke="#000000" stroke-width="26.6667" stroke-linejoin="round" stroke-miterlimit="10" fill="none" fill-rule="evenodd"/><path d="M0 0 55 20" stroke="#000000" stroke-width="13.3333" stroke-linejoin="round" stroke-miterlimit="10" fill="none" fill-rule="evenodd" transform="matrix(1 0 0 -1 297.5 152.5)"/><path d="M0 0 51 17" stroke="#000000" stroke-width="13.3333" stroke-linejoin="round" stroke-miterlimit="10" fill="none" fill-rule="evenodd" transform="matrix(1 0 0 -1 231.5 170.5)"/><path d="M0 0 33 38" stroke="#000000" stroke-width="13.3333" stroke-linejoin="round" stroke-miterlimit="10" fill="none" fill-rule="evenodd" transform="matrix(1 0 0 -1 248.5 230.5)"/><path d="M332.5 222.5 285.5 190.5" stroke="#000000" stroke-width="13.3333" stroke-linejoin="round" stroke-miterlimit="10" fill="none" fill-rule="evenodd"/><path d="M364.5 26.3339C364.5 17.5891 371.589 10.5001 380.334 10.5001L418.667 10.5001 418.667 10.5001 499.917 10.5001 673.666 10.5001C682.411 10.5001 689.5 17.5891 689.5 26.3339L689.5 65.9168 689.5 65.9168 689.5 89.6666 689.5 89.6662C689.5 98.411 682.411 105.5 673.666 105.5L499.917 105.5 385.995 124.99 418.667 105.5 380.334 105.5C371.589 105.5 364.5 98.411 364.5 89.6662L364.5 89.6666 364.5 65.9168 364.5 65.9168Z" stroke="#000000" stroke-width="1.33333" stroke-miterlimit="8" fill="#FFFFFF" fill-rule="evenodd"/><text font-family="Arial,Arial_MSFontService,sans-serif" font-weight="400" font-size="37" transform="translate(419.583 49)">What a great <tspan font-size="37" x="64.4133" y="45">view!</tspan></text></g></svg>