<svg width="1282" height="722" xmlns="http://www.w3.org/2000/svg" xmlns:xlink="http://www.w3.org/1999/xlink" overflow="hidden"><defs><clipPath id="clip0"><rect x="-1" y="-1" width="1282" height="722"/></clipPath></defs><g clip-path="url(#clip0)" transform="translate(1 1)"><path d="M623.591 61.4195C632.794 38.1354 659.13 26.7206 682.414 35.9238 705.698 45.127 717.113 71.4631 707.91 94.7472 698.707 118.031 672.37 129.446 649.086 120.243 625.802 111.04 614.387 84.7036 623.591 61.4195Z" fill="#FFFFFF" fill-rule="evenodd"/><path d="M652.836 58.4001C653.794 55.9747 656.538 54.7856 658.963 55.7443 661.389 56.703 662.578 59.4463 661.619 61.8717 660.66 64.2971 657.917 65.4862 655.492 64.5275 653.066 63.5689 651.877 60.8255 652.836 58.4001M679.849 69.0773C680.808 66.6518 683.551 65.4628 685.976 66.4215 688.402 67.3801 689.591 70.1235 688.632 72.5489 687.674 74.9743 684.93 76.1634 682.505 75.2047 680.079 74.246 678.89 71.5027 679.849 69.0773" stroke="#000000" stroke-width="10.6667" stroke-linejoin="round" stroke-miterlimit="10" fill="#CDCDCD" fill-rule="evenodd"/><path d="M634.637 89.9553C648.389 99.7248 663.605 105.739 680.285 107.998" stroke="#000000" stroke-width="10.6667" stroke-linejoin="round" stroke-miterlimit="10" fill="none" fill-rule="evenodd"/><path d="M623.591 61.4195C632.794 38.1354 659.13 26.7206 682.414 35.9238 705.698 45.127 717.113 71.4631 707.91 94.7472 698.707 118.031 672.37 129.446 649.086 120.243 625.802 111.04 614.387 84.7036 623.591 61.4195Z" stroke="#000000" stroke-width="10.6667" stroke-linejoin="round" stroke-miterlimit="10" fill="none" fill-rule="evenodd"/><path d="M0 0 16 60" stroke="#000000" stroke-width="26.6667" stroke-linejoin="round" stroke-miterlimit="10" fill="none" fill-rule="evenodd" transform="matrix(-1 0 0 1 640.5 120.5)"/><path d="M617.5 174.5 672.5 224.5" stroke="#000000" stroke-width="13.3333" stroke-linejoin="round" stroke-miterlimit="10" fill="none" fill-rule="evenodd"/><path d="M0 0 34 22" stroke="#000000" stroke-width="13.3333" stroke-linejoin="round" stroke-miterlimit="10" fill="none" fill-rule="evenodd" transform="matrix(-1 0 0 1 634.5 115.5)"/><path d="M647.5 128.5 700.5 158.5" stroke="#000000" stroke-width="13.3333" stroke-linejoin="round" stroke-miterlimit="10" fill="none" fill-rule="evenodd"/><path d="M0 0 12 47" stroke="#000000" stroke-width="13.3333" stroke-linejoin="round" stroke-miterlimit="10" fill="none" fill-rule="evenodd" transform="matrix(1 0 0 -1 607.5 222.5)"/><path d="M731.5 28.0003C731.5 18.3352 739.335 10.5001 749 10.5001L773.667 10.5001 773.667 10.5001 836.917 10.5001 967 10.5001C976.665 10.5001 984.5 18.3352 984.5 28.0003L984.5 71.7502 984.5 71.7502 984.5 98.0001 984.5 97.9998C984.5 107.665 976.665 115.5 967 115.5L836.917 115.5 750.151 125.777 773.667 115.5 749 115.5C739.335 115.5 731.5 107.665 731.5 97.9998L731.5 98.0001 731.5 71.7502 731.5 71.7502Z" stroke="#000000" stroke-width="1.33333" stroke-miterlimit="8" fill="#FFFFFF" fill-rule="evenodd"/><text font-family="Arial,Arial_MSFontService,sans-serif" font-weight="400" font-size="37" transform="translate(798.334 53)">What a <tspan font-size="37" x="-51.0001" y="45">beautiful fish!</tspan></text></g></svg>