<svg width="1282" height="722" xmlns="http://www.w3.org/2000/svg" xmlns:xlink="http://www.w3.org/1999/xlink" overflow="hidden"><defs><clipPath id="clip0"><rect x="-1" y="-1" width="1282" height="722"/></clipPath></defs><g clip-path="url(#clip0)" transform="translate(1 1)"><path d="M721.002 84.7896C730.206 61.5055 756.542 50.0907 779.826 59.2939 803.11 68.4971 814.525 94.8332 805.321 118.117 796.118 141.401 769.782 152.816 746.498 143.613 723.214 134.41 711.799 108.074 721.002 84.7896Z" fill="#FFFFFF" fill-rule="evenodd"/><path d="M750.247 81.7702C751.206 79.3447 753.949 78.1557 756.375 79.1144 758.8 80.073 759.989 82.8164 759.031 85.2418 758.072 87.6672 755.329 88.8563 752.903 87.8976 750.478 86.9389 749.289 84.1956 750.247 81.7702M777.261 92.4474C778.219 90.0219 780.963 88.8329 783.388 89.7915 785.814 90.7502 787.003 93.4936 786.044 95.919 785.085 98.3444 782.342 99.5335 779.916 98.5748 777.491 97.6161 776.302 94.8728 777.261 92.4474" stroke="#000000" stroke-width="10.6667" stroke-linejoin="round" stroke-miterlimit="10" fill="#CDCDCD" fill-rule="evenodd"/><path d="M731.594 114.477C746.56 121.175 761.776 127.189 777.242 132.52" stroke="#000000" stroke-width="10.6667" stroke-linejoin="round" stroke-miterlimit="10" fill="none" fill-rule="evenodd"/><path d="M721.002 84.7896C730.206 61.5055 756.542 50.0907 779.826 59.2939 803.11 68.4971 814.525 94.8332 805.321 118.117 796.118 141.401 769.782 152.816 746.498 143.613 723.214 134.41 711.799 108.074 721.002 84.7896Z" stroke="#000000" stroke-width="10.6667" stroke-linejoin="round" stroke-miterlimit="10" fill="none" fill-rule="evenodd"/><path d="M0 0 31 60" stroke="#000000" stroke-width="26.6667" stroke-linejoin="round" stroke-miterlimit="10" fill="none" fill-rule="evenodd" transform="matrix(-1 0 0 1 727.5 138.5)"/><path d="M696.5 196.5 752.5 246.5" stroke="#000000" stroke-width="13.3333" stroke-linejoin="round" stroke-miterlimit="10" fill="none" fill-rule="evenodd"/><path d="M0 0 63 0.000104987" stroke="#000000" stroke-width="13.3333" stroke-linejoin="round" stroke-miterlimit="10" fill="none" fill-rule="evenodd" transform="matrix(-1 0 0 1 728.5 138.5)"/><path d="M0 0 60 30" stroke="#000000" stroke-width="13.3333" stroke-linejoin="round" stroke-miterlimit="10" fill="none" fill-rule="evenodd" transform="matrix(-1 0 0 1 730.5 138.5)"/><path d="M0 0 45 30" stroke="#000000" stroke-width="13.3333" stroke-linejoin="round" stroke-miterlimit="10" fill="none" fill-rule="evenodd" transform="matrix(1 0 0 -1 651.5 221.5)"/><path d="M830.5 26.8336C830.5 17.8129 837.813 10.5001 846.834 10.5001L865.167 10.5001 865.167 10.5001 917.167 10.5001 1022.17 10.5001C1031.19 10.5001 1038.5 17.8129 1038.5 26.8336L1038.5 67.6666 1038.5 67.6666 1038.5 92.1667 1038.5 92.1665C1038.5 101.187 1031.19 108.5 1022.17 108.5L917.167 108.5 831.168 128.723 865.167 108.5 846.834 108.5C837.813 108.5 830.5 101.187 830.5 92.1665L830.5 92.1667 830.5 67.6666 830.5 67.6666Z" stroke="#000000" stroke-width="1.33333" stroke-miterlimit="8" fill="#FFFFFF" fill-rule="evenodd"/><text font-family="Arial,Arial_MSFontService,sans-serif" font-weight="400" font-size="37" transform="translate(877.749 50)">Oh no! <tspan font-size="37" x="-18.7533" y="45">I slipped!</tspan></text></g></svg>