<svg width="1282" height="722" xmlns="http://www.w3.org/2000/svg" xmlns:xlink="http://www.w3.org/1999/xlink" overflow="hidden"><defs><clipPath id="clip0"><rect x="-1" y="-1" width="1282" height="722"/></clipPath></defs><g clip-path="url(#clip0)" transform="translate(1 1)"><path d="M700.161 200.294C687.481 178.705 694.702 150.925 716.29 138.244 737.878 125.564 765.658 132.785 778.339 154.373 791.02 175.961 783.798 203.742 762.21 216.422 740.622 229.103 712.842 221.882 700.161 200.294Z" fill="#FFFFFF" fill-rule="evenodd"/><path d="M715.789 175.39C714.468 173.142 715.22 170.248 717.469 168.927 719.717 167.606 722.611 168.358 723.932 170.607 725.253 172.856 724.501 175.749 722.252 177.07 720.003 178.391 717.109 177.639 715.789 175.39M740.834 160.679C739.513 158.43 740.266 155.536 742.514 154.215 744.763 152.894 747.657 153.647 748.978 155.895 750.299 158.144 749.547 161.038 747.298 162.359 745.049 163.68 742.155 162.928 740.834 160.679" stroke="#000000" stroke-width="10.6667" stroke-linejoin="round" stroke-miterlimit="10" fill="#CDCDCD" fill-rule="evenodd"/><path d="M731.347 212.392C742.449 198.95 756.557 190.664 773.67 187.532" stroke="#000000" stroke-width="10.6667" stroke-linejoin="round" stroke-miterlimit="10" fill="none" fill-rule="evenodd"/><path d="M700.161 200.294C687.481 178.705 694.702 150.925 716.29 138.244 737.878 125.564 765.658 132.785 778.339 154.373 791.02 175.961 783.798 203.742 762.21 216.422 740.622 229.103 712.842 221.882 700.161 200.294Z" stroke="#000000" stroke-width="10.6667" stroke-linejoin="round" stroke-miterlimit="10" fill="none" fill-rule="evenodd"/><path d="M754.5 223.5 754.5 283.5" stroke="#000000" stroke-width="26.6667" stroke-linejoin="round" stroke-miterlimit="10" fill="none" fill-rule="evenodd"/><path d="M0 0 30 60" stroke="#000000" stroke-width="13.3333" stroke-linejoin="round" stroke-miterlimit="10" fill="none" fill-rule="evenodd" transform="matrix(-1 0 0 1 759.5 278.5)"/><path d="M729.5 230.5 679.5 215.5" stroke="#000000" stroke-width="13.3333" stroke-linejoin="round" stroke-miterlimit="10" fill="none" fill-rule="evenodd"/><path d="M0 0 60 30" stroke="#000000" stroke-width="13.3333" stroke-linejoin="round" stroke-miterlimit="10" fill="none" fill-rule="evenodd" transform="matrix(-1 0 0 1 741.5 227.5)"/><path d="M0 0 45 31" stroke="#000000" stroke-width="13.3333" stroke-linejoin="round" stroke-miterlimit="10" fill="none" fill-rule="evenodd" transform="matrix(1 0 0 -1 708.5 314.5)"/><path d="M801.5 55.0004C801.5 45.8875 808.888 38.5001 818 38.5001L836.167 38.5001 836.167 38.5001 888.167 38.5001 993 38.5001C1002.11 38.5001 1009.5 45.8875 1009.5 55.0004L1009.5 96.2501 1009.5 96.2501 1009.5 121 1009.5 121C1009.5 130.113 1002.11 137.5 993 137.5L888.167 137.5 807.501 156.587 836.167 137.5 818 137.5C808.888 137.5 801.5 130.113 801.5 121L801.5 121 801.5 96.2501 801.5 96.2501Z" stroke="#000000" stroke-width="1.33333" stroke-miterlimit="8" fill="#FFFFFF" fill-rule="evenodd"/><text font-family="Arial,Arial_MSFontService,sans-serif" font-weight="400" font-size="37" transform="translate(830.5 101)">I’m okay!</text></g></svg>